<svg id="Layer_1" data-name="Layer 1" xmlns="http://www.w3.org/2000/svg" viewBox="0 0 4371.31 669.77"><defs><style>.cls-1{fill:#fff;}</style></defs><path class="cls-1" d="M298.93,181.48c6.71-52-17.6-67.06-41.07-67.06-33.53,0-56.16,21.8-64.54,59.52C169.84,277,370.18,326.5,334.14,490.79c-22.63,99.75-101.43,155.08-198.66,155.08-96.4,0-135-77.12-119-167.65L118.71,464c-9.22,61.19,8.38,91.36,41.91,91.36,36,0,64.55-19.27,72.09-55.32C259.54,380.14,55,348.29,93.57,174.78,115.36,78.38,185.77,23.9,288,23.9c84.67,0,121.55,61.19,111.49,146.69Z"/><path class="cls-1" d="M380.22,637.48,514.34,32.28H618.28L563.79,278.72H674.44L728.93,32.28H832.87L698.75,637.48H594.81l59.51-268.23H543.67L484.16,637.48Z"/><path class="cls-1" d="M903.27,637.48H799.33L933.45,32.28H1079.3c116.52,0,165.13,49.45,136.63,178.54-21.79,97.23-67.89,136.63-107.29,152.56l27.66,274.1H1030.68l-18.44-250.63c-13.41,1.68-35.2,2.51-53.65,2.51ZM977,303.86h36.88c56.16,0,82.14-20.95,98.07-93s-.84-93-57-93h-36.88Z"/><path class="cls-1" d="M1218.44,637.48l134.12-605.2h278.29l-20.12,90.53H1436.38L1402,278.72h134.12L1516,369.25H1381.89L1342.5,547h186.09l-20.12,90.53Z"/><path class="cls-1" d="M1724.71,32.28h154.23C1986.24,32.28,2030.67,91,2003,215l-53.64,239.74c-26.83,124.06-97.24,182.73-204.53,182.73H1590.59ZM1713.81,552h36c55.32,0,78.79-21,93-84.66l58.68-264.88c14.25-63.71-.84-84.66-56.17-84.66h-36Z"/><path class="cls-1" d="M2143.82,32.28h154.23c107.3,0,151.73,58.67,124.06,182.73l-53.64,239.74c-26.83,124.06-97.24,182.73-204.53,182.73H2009.7ZM2132.92,552h36c55.33,0,78.8-21,93.05-84.66l58.68-264.88c14.25-63.71-.84-84.66-56.17-84.66h-36Z"/><path class="cls-1" d="M2583,637.48H2479.1L2535.27,386,2487.48,32.28H2593.1l21.8,230.51h1.67L2737.28,32.28h105.61L2639.2,386Z"/><path class="cls-1" d="M2958.55,122.81H2858l20.12-90.53H3183.2l-20.12,90.53H3062.49l-114,514.67H2844.55Z"/><path class="cls-1" d="M3110.26,637.48l134.11-605.2h278.3l-20.12,90.53H3328.2l-34.37,155.91h134.11l-20.11,90.53H3273.71L3234.31,547H3420.4l-20.11,90.53Z"/><path class="cls-1" d="M3781.66,234.29l10.06-46.94c11.73-51.13-7.55-72.93-34.37-72.93-41.91,0-59.52,21.8-69.58,67.06L3619,488.28c-10.06,45.26-.84,67.05,41.07,67.05,37.72,0,54.49-21.79,63.71-61.18l15.93-72.93h103.94l-15.09,69.57c-19.28,85.5-84.66,155.08-188.61,155.08-109,0-144.17-69.58-124.89-155.08L3583.84,179c19.27-85.5,84.66-155.07,193.63-155.07,103.94,0,137.47,75.44,117.35,166l-9.22,44.43Z"/><path class="cls-1" d="M3901.52,637.48l134.12-605.2h103.93l-54.48,246.44h110.65l54.48-246.44h103.94l-134.11,605.2H4116.11l59.51-268.23H4065l-59.51,268.23Z"/></svg>